<svg xmlns="http://www.w3.org/2000/svg" xmlns:xlink="http://www.w3.org/1999/xlink" version="1.1" width="256" height="256" viewBox="0 0 256 256" xml:space="preserve">

<defs>
</defs>
<g style="stroke: none; stroke-width: 0; stroke-dasharray: none; stroke-linecap: butt; stroke-linejoin: miter; stroke-miterlimit: 10; fill: none; fill-rule: nonzero; opacity: 1;" transform="translate(1.4065934065934016 1.4065934065934016) scale(2.81 2.81)" >
	<path d="M 88.007 72.63 L 32.983 87.536 c -1.438 0.39 -2.92 -0.461 -3.31 -1.899 L 14.767 30.614 c -0.39 -1.438 0.46 -2.92 1.899 -3.31 l 55.023 -14.906 c 1.438 -0.39 2.92 0.461 3.31 1.899 L 89.905 69.32 C 90.295 70.758 89.445 72.24 88.007 72.63 z" style="stroke: none; stroke-width: 1; stroke-dasharray: none; stroke-linecap: butt; stroke-linejoin: miter; stroke-miterlimit: 10; fill: rgb(119,179,252); fill-rule: nonzero; opacity: 1;" transform=" matrix(1 0 0 1 0 0) " stroke-linecap="round" />
	<path d="M 73.714 80.593 l -56.952 -2.489 c -1.489 -0.065 -2.643 -1.325 -2.578 -2.814 l 2.489 -56.952 c 0.065 -1.489 1.325 -2.643 2.814 -2.578 l 56.952 2.489 c 1.489 0.065 2.643 1.325 2.578 2.814 l -2.489 56.952 C 76.463 79.504 75.203 80.658 73.714 80.593 z" style="stroke: none; stroke-width: 1; stroke-dasharray: none; stroke-linecap: butt; stroke-linejoin: miter; stroke-miterlimit: 10; fill: rgb(252,117,213); fill-rule: nonzero; opacity: 1;" transform=" matrix(1 0 0 1 0 0) " stroke-linecap="round" />
	<path d="M 56.103 82.36 L 2.018 65.482 c -1.515 -0.473 -2.359 -2.084 -1.887 -3.598 L 17.009 7.799 c 0.473 -1.515 2.084 -2.359 3.598 -1.887 L 74.693 22.79 c 1.515 0.473 2.359 2.084 1.887 3.598 L 59.701 80.474 C 59.229 81.988 57.618 82.833 56.103 82.36 z" style="stroke: none; stroke-width: 1; stroke-dasharray: none; stroke-linecap: butt; stroke-linejoin: miter; stroke-miterlimit: 10; fill: rgb(255,202,66); fill-rule: nonzero; opacity: 1;" transform=" matrix(1 0 0 1 0 0) " stroke-linecap="round" />
	<path d="M 58.857 45.909 c -0.099 0 -0.198 -0.015 -0.298 -0.046 L 20.755 34.065 c -0.527 -0.165 -0.821 -0.725 -0.657 -1.252 c 0.165 -0.528 0.723 -0.82 1.252 -0.657 l 37.804 11.797 c 0.527 0.165 0.821 0.725 0.657 1.252 C 59.679 45.634 59.283 45.909 58.857 45.909 z" style="stroke: none; stroke-width: 1; stroke-dasharray: none; stroke-linecap: butt; stroke-linejoin: miter; stroke-miterlimit: 10; fill: rgb(206,123,54); fill-rule: nonzero; opacity: 1;" transform=" matrix(1 0 0 1 0 0) " stroke-linecap="round" />
	<path d="M 45.785 28.573 c -0.813 0 -1.639 -0.121 -2.456 -0.376 c -4.349 -1.357 -6.782 -5.999 -5.426 -10.348 l 4.24 -13.585 c 0.165 -0.528 0.727 -0.821 1.252 -0.657 c 0.527 0.165 0.821 0.725 0.657 1.252 l -4.24 13.585 c -1.028 3.296 0.816 6.814 4.112 7.843 c 3.298 1.028 6.814 -0.816 7.843 -4.112 L 56.16 8.099 c 0.597 -1.913 -0.473 -3.954 -2.385 -4.55 c -0.998 -0.312 -2.055 -0.216 -2.979 0.27 c -0.925 0.485 -1.604 1.3 -1.915 2.297 l -2.452 7.855 c -0.165 0.528 -0.73 0.819 -1.252 0.657 c -0.527 -0.165 -0.821 -0.725 -0.657 -1.252 l 2.451 -7.855 c 0.47 -1.506 1.499 -2.74 2.896 -3.473 s 2.997 -0.877 4.504 -0.407 c 2.964 0.925 4.623 4.09 3.699 7.055 l -4.393 14.077 C 52.574 26.304 49.304 28.572 45.785 28.573 z" style="stroke: none; stroke-width: 1; stroke-dasharray: none; stroke-linecap: butt; stroke-linejoin: miter; stroke-miterlimit: 10; fill: rgb(206,123,54); fill-rule: nonzero; opacity: 1;" transform=" matrix(1 0 0 1 0 0) " stroke-linecap="round" />
	<path d="M 50.159 16.135 c -0.099 0 -0.198 -0.015 -0.298 -0.046 c -0.527 -0.165 -0.821 -0.725 -0.656 -1.252 l 2.4 -7.691 c 0.163 -0.528 0.72 -0.82 1.252 -0.657 c 0.527 0.165 0.821 0.725 0.656 1.252 l -2.4 7.691 C 50.98 15.86 50.585 16.135 50.159 16.135 z" style="stroke: none; stroke-width: 1; stroke-dasharray: none; stroke-linecap: butt; stroke-linejoin: miter; stroke-miterlimit: 10; fill: rgb(206,123,54); fill-rule: nonzero; opacity: 1;" transform=" matrix(1 0 0 1 0 0) " stroke-linecap="round" />
	<path d="M 55.396 57.002 c -0.099 0 -0.198 -0.015 -0.298 -0.045 L 17.293 45.16 c -0.527 -0.165 -0.821 -0.725 -0.657 -1.252 c 0.164 -0.528 0.726 -0.82 1.252 -0.657 l 37.805 11.796 c 0.527 0.165 0.821 0.726 0.657 1.253 C 56.217 56.728 55.821 57.002 55.396 57.002 z" style="stroke: none; stroke-width: 1; stroke-dasharray: none; stroke-linecap: butt; stroke-linejoin: miter; stroke-miterlimit: 10; fill: rgb(206,123,54); fill-rule: nonzero; opacity: 1;" transform=" matrix(1 0 0 1 0 0) " stroke-linecap="round" />
	<path d="M 34.5 62.656 c -0.099 0 -0.199 -0.015 -0.298 -0.046 l -20.371 -6.356 c -0.527 -0.165 -0.821 -0.726 -0.657 -1.253 c 0.165 -0.526 0.724 -0.824 1.252 -0.656 l 20.371 6.356 c 0.527 0.165 0.821 0.726 0.657 1.253 C 35.32 62.382 34.926 62.656 34.5 62.656 z" style="stroke: none; stroke-width: 1; stroke-dasharray: none; stroke-linecap: butt; stroke-linejoin: miter; stroke-miterlimit: 10; fill: rgb(206,123,54); fill-rule: nonzero; opacity: 1;" transform=" matrix(1 0 0 1 0 0) " stroke-linecap="round" />
</g>
</svg>